<svg xmlns="http://www.w3.org/2000/svg" viewBox="0 0 127.37 96.25"><defs><style>.cls-1{fill:#ffcf01;}.cls-2{fill:#fff;}</style></defs><g id="Layer_2" data-name="Layer 2"><g id="Layer_1-2" data-name="Layer 1"><polygon class="cls-1" points="21.31 91.17 13.35 80.29 13.35 88.2 16.52 88.2 16.52 96.02 1.88 96.02 1.88 88.2 4.85 88.2 4.85 76.04 1.88 76.04 1.88 68.23 13.38 68.23 21.31 79.18 29.24 68.23 40.74 68.23 40.74 76.04 37.77 76.04 37.77 88.2 40.74 88.2 40.74 96.02 26.1 96.02 26.1 88.2 29.27 88.2 29.27 80.29 21.31 91.17"/><rect class="cls-2" x="48.57" y="68.24" width="0.4" height="27.8"/><path class="cls-2" d="M63.86,68.27H66.4v24c0,3.08-2.31,4-4.5,4s-4.42-.88-4.42-4v-24H60V91.48c0,2,.65,2.62,1.92,2.62s1.92-.62,1.92-2.62Z"/><path class="cls-2" d="M79.77,68.27h3.92V96H81.46V70.42h-.07L78.47,96H75.31l-2.92-25.6h-.07V96H70.09V68.27H74L76.85,93.1h.08Z"/><path class="cls-2" d="M96.84,68.27h3.92V96H98.53V70.42h-.08L95.53,96H92.38l-2.92-25.6h-.08V96H87.15V68.27h3.92L93.91,93.1H94Z"/><path class="cls-2" d="M111.21,68.27h2.23V96h-3.62l-3.19-24.68h-.07V96h-2.23V68.27H108L111.13,92h.08Z"/><path class="cls-2" d="M123.58,68.27h2.54V96h-2.54V82.68h-3.8V96h-2.54V68.27h2.54V80.53h3.8Z"/><path class="cls-2" d="M68.71,32.06c-.85-1.52-6.26-1.72-12.31-9.28a2.7,2.7,0,0,0-1.79.71c3.55,11.05,11.77,18,12,17.63a8.87,8.87,0,0,1,2.63.25,15.48,15.48,0,0,1,3.34,1.72,80.59,80.59,0,0,1-3.92-11"/><path class="cls-2" d="M69.56,49c-.88,1.34-4,1.56-5.47,1.61A57.08,57.08,0,0,1,52.47,50c-8.37-1.43-10.68-5-16-6.6-6.88-2-11.87-.72-26.23,5.09-1.44.47-3.41.85-4.43.12-1.31-.94-1-2.91-.09-3a2.18,2.18,0,0,0-.39,1c.11,3.21,4.84,1.16,5.73.83s9.6-4.85,15.5-5.71a22.75,22.75,0,0,1,9.53.3C42.56,44,45.37,47.8,52.67,49S60.91,50,63,50c1,0,7.38.09,6.37-3a2.19,2.19,0,0,0-.73-.84c.86-.25,1.83,1.47,1,2.82M21.48,23.59c6.85.23,8.51,4,8.51,4.56-6.45-5.7-13.6-3.59-17.3-1.23a12.33,12.33,0,0,1,8.79-3.33m55.46-5.95a7.19,7.19,0,0,1-.38-3.88A5.77,5.77,0,0,1,79,9.91a7.48,7.48,0,0,0-1.64,4.59,7.72,7.72,0,0,0,.75,3.35,4.54,4.54,0,0,0,4,2.61c1.16.12,3,0,4.7,1.75a1.93,1.93,0,0,1,.63,1.37,4.49,4.49,0,0,0-2.19-2.06,7.81,7.81,0,0,0-2.4-.41,5.6,5.6,0,0,1-5.9-3.47m16.32-6a1.92,1.92,0,0,1,1.9.76,2.36,2.36,0,0,1-.89,3.5,2.75,2.75,0,0,0,.67-1.56c0-.68,0-2-1.46-2a2.7,2.7,0,0,0-1.59.56,3.51,3.51,0,0,1-1.67.72,3.62,3.62,0,0,1-.81,0c1.41-.44,2.75-1.84,3.85-1.93m29.66,36c-5-2-14.31-.55-17.8-1.19a67.14,67.14,0,0,1-10.35-2.86,11.28,11.28,0,0,0-8.68,1.28,18.73,18.73,0,0,0-2.67,2.07c.16-1.35,3.7-4.54,6.32-4.51,0,0-1.22-7.33-2.86-9.95a9.36,9.36,0,0,0-1.75-2c-.86-.8-2.85-2.22-3.19-2.55-2.38-2.31-2.91-3.52-2.87-4.45,0-.58.29-1.2.67-1.3-.23,1.73,1,3.15,1.65,4a32.17,32.17,0,0,0,4.21,3.46,1.57,1.57,0,0,0,1,.51,6.6,6.6,0,0,0,1.53-.53c.35-.18.8-.4.83-.8s-.75-1.31-1-1.59a4.32,4.32,0,0,0-2.31-1.74c-.74-.11-1.43,0-1.75,1a1.31,1.31,0,0,1,1.2-2,1.7,1.7,0,0,1,1.11.31A9.4,9.4,0,0,1,89,27.56c.19.24.55,1.08,1.29,1.21a6.34,6.34,0,0,0,2.46-.42c.32-.12.43-.21.7-.89.36-.87,0-1.1,0-1.86a1.52,1.52,0,0,1,.35-.87,2.39,2.39,0,0,1,.34,1.11c.07.66,0,1.42.37,1.38a1.17,1.17,0,0,0,1-.56,6.13,6.13,0,0,0,1.16-3.27,38.76,38.76,0,0,0-.17-5.15c-.06-1.91.44-3.17.38-4.06a7.28,7.28,0,0,0-1.43-3.63c-1-1.56-.57-3.27-3.8-6.8a10.81,10.81,0,0,0-3.37-2.58A16.09,16.09,0,0,0,82.18.05a9.11,9.11,0,0,0-1.84.16,5.53,5.53,0,0,1,3.43,1.66,7.57,7.57,0,0,1,1.84,3.06,1,1,0,0,1-1,1.14,1.23,1.23,0,0,1-.58-.21c-.35-.21-.25-.48-1.28-.8-3-.92-3.34-3.07-4-3.62s.25-.72,1.48.87a7.13,7.13,0,0,0,3.2,2.46c.56.28.85.72,1,.78s.37,0,.17-.45A8.47,8.47,0,0,0,82.6,2.43,8.81,8.81,0,0,0,78.73.13a1.72,1.72,0,0,0-1.47,0,2.54,2.54,0,0,0-.63,2.11,4.52,4.52,0,0,0,2.69,3.57,4.92,4.92,0,0,0,1.8.35,6.74,6.74,0,0,0,1.1-.08,3.32,3.32,0,0,1-1.32.49,5.22,5.22,0,0,1-2.48-.14A4.27,4.27,0,0,1,76.51,5,4.13,4.13,0,0,1,76,.85a17.84,17.84,0,0,0-5,1.68,17.78,17.78,0,0,0-7,5.75,34.49,34.49,0,0,0-6.23,14.3c3,3.56,8.29,6.91,10.73,7.6,4,1.71,8.38,2.38,11.78,5.43A33.36,33.36,0,0,1,83,38.74s-5-4.4-9.71-5.61A20,20,0,0,0,70,32.25c.31,3.69,2.77,7.74,3.86,11.7.77,2.9.46,3.64.23,4.44A5.66,5.66,0,0,0,70.79,43c-2.05-1.09-4.55-1.61-6.55-.1A2.42,2.42,0,0,0,63,45.21a1.58,1.58,0,0,0,1,1.51,2.51,2.51,0,0,0,1.6-.29s-.23,1.12-1.86.86a2.22,2.22,0,0,1-1.83-1.82,3,3,0,0,1,.48-2.15,5,5,0,0,1,3-2.11A24,24,0,0,1,61.7,38c-5.53-6.14-8.61-14.76-8.61-14.76-2.53-.93-17.32-6.51-27.65-5.25-3.11,0-8.52,2.16-10.17,3.17C4.47,26.79-.77,41,.09,48.52c.51,3.53,1.07,5.35,4.55,5.93a20,20,0,0,0,3,.08s25.52.12,25.62,0A2.38,2.38,0,0,0,34.81,53c.26-.67.22-2.18-1.64-3.29.64-.1,1.75,1,2,1.26.51.68.94,2,.5,2.46a.9.9,0,0,0,.06,1.42,2.27,2.27,0,0,0,2.28,0c.67-.46.84-1.21.79-2.49s-1-3.66-4.44-4.36c-5.12-1.06-10.29.28-14,1.6,0,0,2.94-1.36,4.25-1.78,6.4-2.06,11-.53,12.32.16,3.57,1.9,3.84,4.7,2.83,6.4,7.4,0,7.6,0,13.75,0,5.48,0,13.46,0,14.19,0,1.49-.1,4.69-.52,5.92-2.77.29.52.6,3,5.9,2.79h0c2.63-.12,42.14.2,42.39,0a2.4,2.4,0,0,0,1.53-1.57c.25-.67.21-2.18-1.64-3.29.64-.1,1.75,1,2,1.26.51.68.93,2,.5,2.46a.89.89,0,0,0,.06,1.41,2.24,2.24,0,0,0,2.28.06c.67-.47.84-1.21.79-2.49s-1.2-3.44-4.44-4.74"/><rect class="cls-2" x="2" y="55.71" width="124.21" height="4.77"/></g></g></svg>