<svg xmlns="http://www.w3.org/2000/svg" viewBox="0 0 147.12 180.44"><defs><style>.cls-1{fill:#fff;}.cls-2{fill:#ffcf01;}</style></defs><g id="Layer_2" data-name="Layer 2"><g id="Layer_1-2" data-name="Layer 1"><path class="cls-1" d="M76.53,24.72c-.66-1.17-4.83-1.33-9.5-7.16a2.07,2.07,0,0,0-1.37.55C68.39,26.63,74.73,32,74.94,31.7a7.19,7.19,0,0,1,2,.19,12.36,12.36,0,0,1,2.57,1.33,60.78,60.78,0,0,1-3-8.5"/><path class="cls-1" d="M77.18,37.77C76.5,38.81,74.12,39,73,39A44.88,44.88,0,0,1,64,38.58c-6.46-1.11-8.24-3.9-12.32-5.09-5.31-1.56-9.16-.56-20.23,3.92-1.11.36-2.63.66-3.42.09-1-.72-.75-2.24-.07-2.29a1.72,1.72,0,0,0-.3.8c.09,2.47,3.73.89,4.42.63S39.49,32.9,44,32.25a17.61,17.61,0,0,1,7.35.22c5,1.46,7.14,4.39,12.77,5.34s6.35.71,7.94.71c.73,0,5.69.07,4.91-2.28a1.68,1.68,0,0,0-.56-.64c.66-.2,1.41,1.13.73,2.17M40.11,18.19c5.28.18,6.56,3.12,6.56,3.51a10.83,10.83,0,0,0-13.34-.94,9.53,9.53,0,0,1,6.78-2.57M82.87,13.6a5.56,5.56,0,0,1-.29-3,4.44,4.44,0,0,1,1.88-3,5.77,5.77,0,0,0-1.27,3.54,6.16,6.16,0,0,0,.58,2.58,3.49,3.49,0,0,0,3.08,2,4.89,4.89,0,0,1,3.62,1.35A1.48,1.48,0,0,1,91,18.18a3.49,3.49,0,0,0-1.69-1.59,6.2,6.2,0,0,0-1.85-.32,4.31,4.31,0,0,1-4.55-2.67M95.45,9a1.47,1.47,0,0,1,1.46.59,1.8,1.8,0,0,1-.68,2.69,2.07,2.07,0,0,0,.52-1.2c0-.52,0-1.55-1.13-1.57a2.13,2.13,0,0,0-1.22.43,2.76,2.76,0,0,1-1.29.56,3.34,3.34,0,0,1-.62,0c1.08-.34,2.12-1.42,3-1.49m22.87,27.72c-3.84-1.54-11-.43-13.72-.92a52.49,52.49,0,0,1-8-2.2,8.71,8.71,0,0,0-6.7,1,14.87,14.87,0,0,0-2.06,1.6c.13-1.05,2.86-3.51,4.88-3.48,0,0-.94-5.65-2.2-7.67a7.61,7.61,0,0,0-1.36-1.53c-.66-.61-2.2-1.71-2.46-2-1.83-1.77-2.24-2.71-2.21-3.42,0-.45.23-.93.52-1a4.09,4.09,0,0,0,1.27,3.07,23.84,23.84,0,0,0,3.25,2.67,1.21,1.21,0,0,0,.79.4,5.39,5.39,0,0,0,1.18-.41c.27-.15.61-.31.64-.62s-.58-1-.78-1.23a3.34,3.34,0,0,0-1.79-1.34c-.57-.08-1.1,0-1.35.74a1,1,0,0,1,.92-1.54,1.22,1.22,0,0,1,.86.24,7.19,7.19,0,0,1,2.15,2.18c.14.19.42.83,1,.93a4.67,4.67,0,0,0,1.9-.32c.24-.09.33-.16.54-.69s0-.85,0-1.43a1,1,0,0,1,.27-.67,2,2,0,0,1,.26.85c0,.51,0,1.09.28,1.07a.94.94,0,0,0,.82-.43A4.84,4.84,0,0,0,98.16,18a31.1,31.1,0,0,0-.13-4c0-1.48.34-2.45.29-3.14a5.58,5.58,0,0,0-1.11-2.79c-.8-1.21-.43-2.53-2.92-5.25a8.41,8.41,0,0,0-2.6-2A12.51,12.51,0,0,0,86.91,0a7,7,0,0,0-1.42.12,4.28,4.28,0,0,1,2.64,1.28A5.8,5.8,0,0,1,89.55,3.8a.75.75,0,0,1-.74.88,1,1,0,0,1-.45-.16c-.27-.16-.19-.37-1-.62-2.28-.71-2.57-2.37-3.07-2.79s.2-.56,1.14.67a5.52,5.52,0,0,0,2.47,1.9c.43.21.66.56.8.6s.29,0,.14-.35a6.66,6.66,0,0,0-1.61-2.05,7,7,0,0,0-3-1.78,1.34,1.34,0,0,0-1.13,0,2,2,0,0,0-.49,1.63A3.49,3.49,0,0,0,84.7,4.51a3.79,3.79,0,0,0,1.4.27,5,5,0,0,0,.84-.06,2.59,2.59,0,0,1-1,.38A4,4,0,0,1,84,5a3.3,3.3,0,0,1-1.47-1.14,3.19,3.19,0,0,1-.43-3.2A13.82,13.82,0,0,0,78.23,2a13.86,13.86,0,0,0-5.41,4.43,26.61,26.61,0,0,0-4.8,11c2.34,2.74,6.39,5.33,8.27,5.86,3.07,1.31,6.46,1.83,9.09,4.18a27.33,27.33,0,0,1,2.14,2.42S83.63,26.48,80,25.55a14.55,14.55,0,0,0-2.55-.69c.24,2.85,2.14,6,3,9,.59,2.23.35,2.8.18,3.42a4.37,4.37,0,0,0-2.51-4.2c-1.59-.84-3.51-1.23-5.06-.07a1.86,1.86,0,0,0-1,1.82A1.21,1.21,0,0,0,72.89,36a1.91,1.91,0,0,0,1.24-.23s-.18.87-1.44.67a1.72,1.72,0,0,1-1.41-1.4,2.3,2.3,0,0,1,.37-1.66,3.85,3.85,0,0,1,2.29-1.63,18.9,18.9,0,0,1-2.82-2.47,39.47,39.47,0,0,1-6.64-11.39c-2-.71-13.35-5-21.32-4-2.39,0-6.57,1.67-7.84,2.44C27,20.66,23,31.63,23.62,37.41c.39,2.72.83,4.12,3.51,4.57a14.89,14.89,0,0,0,2.33.06s19.67.1,19.75,0a1.83,1.83,0,0,0,1.18-1.21,2.19,2.19,0,0,0-1.26-2.53c.49-.08,1.34.75,1.51,1,.39.52.72,1.54.38,1.89a.69.69,0,0,0,0,1.09,1.73,1.73,0,0,0,1.77,0c.51-.35.64-.92.6-1.92S52.65,37.6,50,37.05c-3.95-.81-7.94.22-10.8,1.24,0,0,2.27-1,3.28-1.38C47.42,35.33,51,36.5,52,37c2.75,1.46,3,3.62,2.18,4.93,5.71,0,5.86,0,10.6,0,4.23,0,10.38,0,11,0,1.14-.07,3.61-.4,4.56-2.14.22.41.46,2.29,4.55,2.16h0c2-.1,32.5.15,32.69,0a1.83,1.83,0,0,0,1.18-1.2,2.2,2.2,0,0,0-1.27-2.54c.5-.08,1.35.75,1.52,1,.39.53.71,1.54.38,1.9a.69.69,0,0,0,0,1.09,1.76,1.76,0,0,0,1.76,0c.52-.36.65-.93.61-1.92s-.92-2.65-3.42-3.65"/><rect class="cls-1" x="25.09" y="42.95" width="95.77" height="3.68"/><polygon class="cls-1" points="24.12 148.54 24.12 134.65 28.79 134.65 30.97 144.1 31.01 144.1 33.32 134.65 37.84 134.65 37.84 148.54 35.01 148.54 35.01 137.82 34.97 137.82 32.3 148.54 29.52 148.54 26.98 137.82 26.95 137.82 26.95 148.54 24.12 148.54"/><path class="cls-1" d="M49.6,134.65v9.85c0,2.08-1.18,4.27-4.72,4.27-3.19,0-4.73-1.65-4.73-4.27v-9.85h2.91v9.66c0,1.71.73,2.38,1.79,2.38,1.27,0,1.84-.84,1.84-2.38v-9.66Z"/><path class="cls-1" d="M55.35,148.77c-3.59,0-4.27-2.11-4.11-4.52h2.9c0,1.33.06,2.44,1.66,2.44a1.38,1.38,0,0,0,1.46-1.57c0-2.51-5.85-2.66-5.85-6.8,0-2.17,1-3.9,4.58-3.9,2.83,0,4.23,1.27,4,4.17H57.2c0-1-.17-2.1-1.34-2.1A1.36,1.36,0,0,0,54.35,138c0,2.63,5.85,2.4,5.85,6.77,0,3.6-2.63,4-4.85,4"/><polygon class="cls-1" points="62.28 148.54 62.28 134.65 69.87 134.65 69.87 136.78 65.19 136.78 65.19 140.21 69.5 140.21 69.5 142.35 65.19 142.35 65.19 146.41 70.02 146.41 70.02 148.54 62.28 148.54"/><path class="cls-1" d="M81.3,134.65v9.85c0,2.08-1.17,4.27-4.72,4.27-3.19,0-4.73-1.65-4.73-4.27v-9.85h2.91v9.66c0,1.71.73,2.38,1.79,2.38,1.27,0,1.84-.84,1.84-2.38v-9.66Z"/><polygon class="cls-1" points="83.61 148.54 83.61 134.65 88.29 134.65 90.46 144.1 90.5 144.1 92.81 134.65 97.33 134.65 97.33 148.54 94.5 148.54 94.5 137.82 94.46 137.82 91.79 148.54 89.02 148.54 86.48 137.82 86.44 137.82 86.44 148.54 83.61 148.54"/><path class="cls-1" d="M110.48,141.59c0-3.56-.21-5.1-1.85-5.1s-1.85,1.54-1.85,5.1.21,5.1,1.85,5.1,1.85-1.53,1.85-5.1m-6.64,0c0-3.67,0-7.17,4.79-7.17s4.79,3.5,4.79,7.17,0,7.18-4.79,7.18-4.79-3.54-4.79-7.18"/><polygon class="cls-1" points="115.67 148.54 115.67 134.65 122.89 134.65 122.89 136.78 118.58 136.78 118.58 140.35 122.7 140.35 122.7 142.48 118.58 142.48 118.58 148.54 115.67 148.54"/><polygon class="cls-1" points="7.66 151.53 7.66 161.15 7.62 161.15 3.93 151.53 0 151.53 0 165.43 2.71 165.43 2.71 155.26 2.75 155.26 6.54 165.43 10.37 165.43 10.37 151.53 7.66 151.53"/><path class="cls-1" d="M17.36,154.21h0l-1.33,6h2.77Zm-5.6,11.22,3.85-13.9h3.83l3.77,13.9H20.15l-.77-3.08h-4l-.79,3.08Z"/><polygon class="cls-1" points="31.31 151.53 31.31 153.84 28.08 153.84 28.08 165.43 25.18 165.43 25.18 153.84 21.94 153.84 21.94 151.53 31.31 151.53"/><path class="cls-1" d="M42.05,151.53v9.85c0,2.08-1.17,4.28-4.71,4.28-3.2,0-4.74-1.66-4.74-4.28v-9.85h2.91v9.66c0,1.71.73,2.39,1.79,2.39,1.27,0,1.85-.85,1.85-2.39v-9.66Z"/><path class="cls-1" d="M47.27,157.53h1.29c1.15,0,1.48-1.15,1.48-2,0-1.32-.56-1.82-1.48-1.82H47.27Zm0,7.9H44.36v-13.9h5.37c2,0,3.26,1.27,3.26,3.64,0,1.77-.7,3.1-2.58,3.4v0a2.47,2.47,0,0,1,2.52,2.74,19.75,19.75,0,0,0,.32,4.08H50.41a6.32,6.32,0,0,1-.31-2.7c0-1.65.15-3.06-2.08-3.06h-.75Z"/><path class="cls-1" d="M59.66,154.21h0l-1.33,6h2.77Zm-5.6,11.22,3.85-13.9h3.83l3.77,13.9H62.46l-.77-3.08h-4l-.79,3.08Z"/><polygon class="cls-1" points="66.9 165.43 66.9 151.53 69.81 151.53 69.81 163.12 74.16 163.12 74.16 165.43 66.9 165.43"/><polygon class="cls-1" points="86.03 157.09 86.03 151.53 88.94 151.53 88.94 165.43 86.03 165.43 86.03 159.23 82.7 159.23 82.7 165.43 79.8 165.43 79.8 151.53 82.7 151.53 82.7 157.09 86.03 157.09"/><rect class="cls-1" x="91.46" y="151.53" width="2.91" height="13.9"/><path class="cls-1" d="M100.58,165.66c-3.59,0-4.27-2.12-4.11-4.53h2.9c0,1.33.06,2.45,1.66,2.45a1.39,1.39,0,0,0,1.46-1.58c0-2.5-5.85-2.65-5.85-6.79,0-2.18,1-3.91,4.58-3.91,2.83,0,4.23,1.27,4,4.18h-2.83c0-1-.17-2.1-1.35-2.1a1.35,1.35,0,0,0-1.5,1.48c0,2.64,5.85,2.4,5.85,6.77,0,3.6-2.63,4-4.85,4"/><polygon class="cls-1" points="115.4 151.53 115.4 153.84 112.17 153.84 112.17 165.43 109.26 165.43 109.26 153.84 106.03 153.84 106.03 151.53 115.4 151.53"/><path class="cls-1" d="M122.49,158.48c0-3.56-.22-5.1-1.85-5.1s-1.85,1.54-1.85,5.1.21,5.1,1.85,5.1,1.85-1.54,1.85-5.1m-6.64,0c0-3.68,0-7.18,4.79-7.18s4.79,3.5,4.79,7.18,0,7.18-4.79,7.18-4.79-3.55-4.79-7.18"/><path class="cls-1" d="M130.59,157.53h1.29c1.15,0,1.48-1.15,1.48-2,0-1.32-.56-1.82-1.48-1.82h-1.29Zm0,7.9h-2.91v-13.9h5.37c2,0,3.26,1.27,3.26,3.64,0,1.77-.7,3.1-2.58,3.4v0a2.47,2.47,0,0,1,2.52,2.74,19.75,19.75,0,0,0,.32,4.08h-2.84a6.32,6.32,0,0,1-.31-2.7c0-1.65.15-3.06-2.08-3.06h-.75Z"/><polygon class="cls-1" points="144.16 151.53 141.94 157.4 139.87 151.53 136.69 151.53 140.33 160.61 140.33 165.43 143.23 165.43 143.23 160.61 147.12 151.53 144.16 151.53"/><path class="cls-1" d="M38.36,177.92c0,1.64,0,1.86.87,1.88v.4h-3v-.4c.77-.07.85-.18.86-1,0-.3,0-.63,0-.92v-2.59a11.87,11.87,0,0,0,0-1.39c0-.4-.24-.46-.83-.51v-.39h3.24c1.76,0,2.31.84,2.31,1.83a2,2,0,0,1-1.41,1.89l1.27,2.2c.46.84.7,1,1.28,1.11v.24l-.47,0A2.33,2.33,0,0,1,40,178.69l-.39-.85c-.43-.9-.57-.84-1.25-.85Zm0-1.56a3.71,3.71,0,0,0,.67.07,1.43,1.43,0,0,0,1.46-1.2c0-.82-.38-1.54-1.69-1.54a2.85,2.85,0,0,0-.44,0Zm91.24.73v.38c-.65,0-.65.22-.67,1.58v.53a4.66,4.66,0,0,1-2.75.84,3.76,3.76,0,0,1-.14-7.51,4.35,4.35,0,0,1,2.5.82l.37-.43.06,2.24-.29.05a3.72,3.72,0,0,0-.9-1.45,2,2,0,0,0-1.42-.54c-1.24,0-2.28,1.06-2.28,3.11,0,1.64.81,3,2.2,3a1.61,1.61,0,0,0,1.24-.6,1,1,0,0,0,.14-.68c0-.91-.15-.93-.94-1v-.38ZM35.05,180.2a15.91,15.91,0,0,1,.15-1.86h-.34c-.25,1.28-1,1.22-2,1.22s-1.14-.26-1.14-.72v-2h.77c.88,0,1.13.08,1.13.88H34v-2.36h-.34c-.07.63-.2.84-1.12.84h-.78v-2.51h.88c1.21,0,1.65.09,1.81,1.06h.32l0-1.7H29.61v.39c.51.05.73.08.8.41a8.86,8.86,0,0,1,.06,1.29v2.51c0,.19,0,1.06,0,1.22,0,.78-.12.86-.85.93v.4Zm27.73,0v-.39c.55-.06.77-.08.91-.23s.16-.34.17-1.12v-1.25l-1.89-3c-.53-.76-.53-.78-1.22-.82V173h3.72v.4c-.75,0-1.08,0-1.08.38a1.61,1.61,0,0,0,.31.72l1.09,1.79,1-1.78a2,2,0,0,0,.28-.73c0-.34-.29-.35-.79-.38V173h2.79v.4c-.72,0-.93.23-1.74,1.56l-1.12,1.86v1.49c0,1.3,0,1.4,1.07,1.46v.39Zm-33.85-7.15v.39c-.69.1-.78.29-1.36,1.7l-2.18,5.19H25l-2-5.26c-.49-1.36-.55-1.52-1.27-1.63v-.39h3.39v.39c-.58,0-.95,0-.95.45a3.5,3.5,0,0,0,.24,1l1.25,3.62,1.45-3.75a3.15,3.15,0,0,0,.21-.76c0-.51-.5-.53-.95-.54v-.39Zm-25.31,0v.39c-1,.07-1,.1-1,1.62v1.68A3.77,3.77,0,0,0,3.14,179a1.53,1.53,0,0,0,1.29.6,1.73,1.73,0,0,0,1.83-1.37,11.47,11.47,0,0,0,.21-2.75v-1.34c0-.65-.38-.67-1-.72v-.39H8.17v.39c-.67,0-.81.14-.85.85,0,.17-.09,2.15-.1,2.46a8.32,8.32,0,0,1-.17,1.59,2.77,2.77,0,0,1-2.85,2,3.52,3.52,0,0,1-1.87-.51c-1.06-.72-1.07-1.79-1.07-2.94V175.3a12.65,12.65,0,0,0,0-1.29c-.05-.46-.28-.54-.81-.57v-.39Zm51.44,7.15v-.31c.66,0,.85-.25.85-.82v-5.26H55c-.81,0-1.34,0-1.41,1.25h-.37l.06-2h6.49l.06,2h-.38c-.06-1.28-.6-1.25-1.4-1.25h-.89v5.26c0,.57.18.8.83.82v.31ZM43.33,178l.36,0c.4,1.16,1.05,1.79,2.12,1.79.76,0,1.43-.33,1.43-1.09s-.77-1.14-1.12-1.28-.59-.2-.87-.31a2.16,2.16,0,0,1-1.69-2,2.09,2.09,0,0,1,2.27-2.09,2.91,2.91,0,0,1,1.64.49l.44-.32.23,2.13-.35.07a2.66,2.66,0,0,0-.5-1.06,1.68,1.68,0,0,0-1.39-.66c-.76,0-1.21.37-1.21.93,0,.86.84,1.14,1.64,1.4a5.63,5.63,0,0,1,1,.42,2.06,2.06,0,0,1,1,1.81,2.33,2.33,0,0,1-2.51,2.26,3.21,3.21,0,0,1-1.85-.56l-.6-.44ZM9.08,180.2v-.39c.59,0,.81-.05.89-.45s.14-4.71.14-5.45a1.36,1.36,0,0,0-1-.47v-.39h2.15c.59.85.73,1,1.78,2.35l2,2.47v-3.2c0-1.13,0-1.19-1.18-1.23v-.39h2.81v.39c-.77,0-.84.17-.85,1.33l-.1,5.51h-.43l-.63-.79c-.33-.41-.65-.82-1-1.21l-2.82-3.48v3.7c0,1.15.08,1.2,1.18,1.31v.39Zm40.15,0v-.39c.69-.09.84-.17.85-.93v-3.79c0-1.49,0-1.54-.85-1.65v-.39h3v.39c-.84.08-.84.11-.84,1.65V178c0,.25,0,1.05,0,1.26,0,.43.25.53.81.58v.39Zm-31.45,0v-.39c.69-.09.84-.17.84-.93v-3.79c0-1.49,0-1.54-.84-1.65v-.39h3v.39c-.84.08-.84.11-.84,1.65V178c0,.25,0,1.05,0,1.26,0,.43.25.53.8.58v.39Zm61.36-.35v.4h3v-.4c-.74-.07-.83-.14-.85-.92v-2H82c.8,0,1.23.08,1.27.87h.35v-2.35h-.35c0,.77-.24.85-1.12.85h-.94v-2.48a6,6,0,0,1,.85,0c1.4,0,1.85,0,2,1.11h.35l-.11-1.75H79.14v.39c.52,0,.74.08.81.41a10.61,10.61,0,0,1,.06,1.3v2.51c0,.19,0,1,0,1.22,0,.78-.11.85-.85.92m-4.28-.09a1.74,1.74,0,0,0,1.41-.88,3.84,3.84,0,0,0,.59-2.42,3.42,3.42,0,0,0-.82-2.27,1.64,1.64,0,0,0-2.54.05,3.4,3.4,0,0,0-.73,2.29,3.87,3.87,0,0,0,.64,2.4,1.8,1.8,0,0,0,1.45.83m3.57-3.09a3.49,3.49,0,0,1-3.57,3.75,3.59,3.59,0,0,1-3.7-3.77,3.51,3.51,0,0,1,3.6-3.7,3.55,3.55,0,0,1,3.67,3.72M138,180.25v-.39c.59,0,.81,0,.89-.45s.13-4.71.14-5.45a1.39,1.39,0,0,0-1-.47v-.39h2.14c.6.85.73,1.05,1.78,2.35l2,2.46v-3.19c0-1.13,0-1.19-1.17-1.23v-.39h2.81v.39c-.77,0-.84.17-.85,1.33l-.1,5.51h-.43l-.64-.79c-.32-.41-.65-.81-1-1.21l-2.82-3.48v3.7c0,1.16.08,1.2,1.17,1.31v.39Zm-44.12,0v-.39c.9-.06.9-.1.91-1.42v-3.6l-2.5,5.49h-.62l-2.3-5.56,0,4.2c0,.69.08.83.83.89v.39H87.67v-.39c.58,0,.8-.11.84-.59,0-.2,0-.8.06-1.2l.1-3c0-.24,0-.58,0-.84,0-.7-.14-.75-.78-.76v-.39h2.24l2.23,5.42,2.45-5.42H97v.43c-.85.05-.86.14-.85,1.25v2.94c0,.49,0,1.1,0,1.46,0,.53.25.63.81.68v.39Zm4.5,0v-.39c.69-.1.84-.17.84-.92v-3.81c0-1.48,0-1.52-.84-1.64v-.39h3v.39c-.84.08-.84.12-.84,1.64V178c0,.25,0,1,0,1.26,0,.44.25.54.81.58v.39Zm20.33,0v-.39c.7-.1.84-.17.85-.92v-3.81c0-1.48,0-1.52-.85-1.64v-.39h3v.39c-.83.08-.83.12-.83,1.64V178c0,.25,0,1,0,1.26,0,.44.26.54.81.58v.39Zm-8.81,0v-.39c.82-.07.82-.24.82-.93,0-.26,0-.5,0-.76v-3a8.84,8.84,0,0,0,0-1.15c0-.43-.24-.49-.8-.54v-.39H113v.39c-.59.06-.82.08-.89.47a7.71,7.71,0,0,0-.06,1.18v1c.62,0,1,.05,1.65.05s1.08,0,1.68-.05v-1.2c0-1.3,0-1.35-1-1.44v-.39h3.09v.39c-.83.1-.83.11-.83,1.47v3c0,.28,0,1.18,0,1.39,0,.37.26.45.79.5v.39h-3.09v-.39c.71-.08.91-.1,1-.59,0-.21,0-.48,0-1V177c-.56,0-1-.05-1.61-.05s-1.1,0-1.72.05v1.31c0,1.49,0,1.49,1,1.59v.39Zm-1.2-1.59a3.32,3.32,0,0,1-3,1.78,3.47,3.47,0,0,1-3.55-3.67,3.57,3.57,0,0,1,3.6-3.84,3.44,3.44,0,0,1,2.35.86l.49-.44,0,2.16-.32.06a2.9,2.9,0,0,0-.77-1.25,2.13,2.13,0,0,0-1.49-.7c-1.3,0-2.31,1-2.31,2.9,0,1.57.84,3,2.48,3a2.3,2.3,0,0,0,2.1-1.24Zm24.85-4.15-1,3h2.05Zm.65,5.74v-.39c.48,0,.86-.07.86-.47A2,2,0,0,0,135,179l-.22-.73h-2.52l-.22.62a1.38,1.38,0,0,0-.09.44c0,.51.54.54,1,.56v.39H130v-.39c.75,0,1-.19,1.27-.93l1.93-5.3-.11-.17a4.1,4.1,0,0,0,1.41-.66c.14.49.16.55.32,1l1.58,4.86c.28.86.42,1.07,1.17,1.15v.39Z"/><polygon class="cls-2" points="92.53 56.36 72.98 83.35 53.43 56.36 25.09 56.36 25.09 75.61 32.41 75.61 32.41 105.58 25.09 105.58 25.09 124.85 61.17 124.85 61.17 105.58 53.37 105.58 53.37 86.09 72.98 112.89 92.58 86.09 92.58 105.58 84.79 105.58 84.79 124.85 120.86 124.85 120.86 105.58 113.54 105.58 113.54 75.61 120.86 75.61 120.86 56.36 92.53 56.36"/></g></g></svg>